<svg width="512" height="512" viewBox="0 0 512 512" xmlns="http://www.w3.org/2000/svg" role="img" aria-label="Sea swimmer icon">
  <defs>
    <linearGradient id="sky" x1="0" y1="0" x2="0" y2="1">
      <stop offset="0" stop-color="#08273a"/>
      <stop offset="0.56" stop-color="#0e5a73"/>
      <stop offset="1" stop-color="#2ec4a6"/>
    </linearGradient>
    <linearGradient id="water" x1="0" y1="0" x2="1" y2="1">
      <stop offset="0" stop-color="#2aa6b0"/>
      <stop offset="1" stop-color="#0e5a73"/>
    </linearGradient>
  </defs>
  <rect width="512" height="512" rx="108" fill="url(#sky)"/>
  <circle cx="396" cy="108" r="42" fill="#ff7a1a"/>
  <path d="M0 310c46-34 91-44 134-29 34 12 62 37 101 37 48 0 78-43 132-44 49-1 88 25 145 12v226H0Z" fill="url(#water)"/>
  <path d="M18 358c48-23 86-25 124-5 38 19 72 35 121 13 44-20 84-25 129-5 35 15 72 18 120 2" fill="none" stroke="#e7f7f4" stroke-width="20" stroke-linecap="round" opacity=".9"/>
  <path d="M46 410c58-23 106-24 151-1 37 20 77 19 123-2 46-22 94-19 146 6" fill="none" stroke="#e7f7f4" stroke-width="14" stroke-linecap="round" opacity=".65"/>
  <circle cx="223" cy="210" r="38" fill="#ff7a1a"/>
  <path d="M194 257c37-28 84-36 134-20 30 10 48 30 63 60" fill="none" stroke="#f4f0e6" stroke-width="34" stroke-linecap="round"/>
  <path d="M149 302c38-35 81-52 128-50" fill="none" stroke="#08273a" stroke-width="33" stroke-linecap="round"/>
  <path d="M341 226c36-11 66-4 91 22" fill="none" stroke="#ff7a1a" stroke-width="28" stroke-linecap="round"/>
</svg>
